<svg width="400" height="400" viewBox="0 0 400 400" fill="none" xmlns="http://www.w3.org/2000/svg">
<g clip-path="url(#clip0_437_185)">
<rect width="400" height="400" rx="200" fill="#1B3353"/>
<rect width="400" height="400" fill="#1B3353"/>
<rect x="-277.7" y="-75.6111" width="779.736" height="701.39" transform="rotate(-15 -277.7 -75.6111)" fill="#1B3353"/>
<g opacity="0.2">
<rect x="-253.112" y="16.1519" width="780" height="20" transform="rotate(-15 -253.112 16.1519)" fill="#336699"/>
<rect x="-228.524" y="107.915" width="780" height="20" transform="rotate(-15 -228.524 107.915)" fill="#336699"/>
<rect x="-203.937" y="199.678" width="780" height="20" transform="rotate(-15 -203.937 199.678)" fill="#336699"/>
<rect x="-179.349" y="291.441" width="780" height="20" transform="rotate(-15 -179.349 291.441)" fill="#336699"/>
<rect x="-154.761" y="383.204" width="780" height="20" transform="rotate(-15 -154.761 383.204)" fill="#336699"/>
<rect x="-130.173" y="474.967" width="780" height="20" transform="rotate(-15 -130.173 474.967)" fill="#336699"/>
<rect x="-105.585" y="566.73" width="780" height="20" transform="rotate(-15 -105.585 566.73)" fill="#336699"/>
<rect x="-185.937" y="-100.199" width="20" height="701" transform="rotate(-15 -185.937 -100.199)" fill="#336699"/>
<rect x="-94.1738" y="-124.787" width="20" height="701" transform="rotate(-15 -94.1738 -124.787)" fill="#336699"/>
<rect x="-2.41064" y="-149.375" width="20" height="701" transform="rotate(-15 -2.41064 -149.375)" fill="#336699"/>
<rect x="89.3521" y="-173.962" width="20" height="701" transform="rotate(-15 89.3521 -173.962)" fill="#336699"/>
<rect x="181.115" y="-198.55" width="20" height="701" transform="rotate(-15 181.115 -198.55)" fill="#336699"/>
<rect x="272.878" y="-223.138" width="20" height="701" transform="rotate(-15 272.878 -223.138)" fill="#336699"/>
<rect x="364.641" y="-247.726" width="20" height="701" transform="rotate(-15 364.641 -247.726)" fill="#336699"/>
</g>
<path d="M0 400V0H400L0 400Z" fill="#8ABC3F"/>
<path fill-rule="evenodd" clip-rule="evenodd" d="M274.566 60.4289C270.661 56.5237 264.329 56.5237 260.424 60.4289L200.32 120.533L214.462 134.675L267.495 81.6421L318.407 132.554L265.374 185.587L279.516 199.729L339.62 139.625C343.525 135.72 343.525 129.388 339.62 125.483L274.566 60.4289Z" fill="white"/>
<path fill-rule="evenodd" clip-rule="evenodd" d="M285 225C285 285.751 235.751 335 175 335C114.249 335 65 285.751 65 225C65 164.249 114.249 115 175 115C235.751 115 285 164.249 285 225ZM175 315C224.706 315 265 274.706 265 225C265 175.294 224.706 135 175 135C125.294 135 85 175.294 85 225C85 274.706 125.294 315 175 315Z" fill="white"/>
<path d="M111 198.333C111 218.952 127.715 235.667 148.333 235.667C153.084 235.667 157.612 234.743 161.792 233.125L196.333 267.667C196.333 279.386 205.948 289 217.667 289C229.386 289 239 279.386 239 267.667C239 255.948 229.386 246.333 217.667 246.333L183.125 211.792C184.743 207.612 185.667 203.084 185.667 198.333C185.667 177.715 168.952 161 148.333 161C143.581 161 139.056 161.926 134.875 163.542L153.667 182.333V203.667H132.333L113.542 184.875C111.926 189.056 111 193.581 111 198.333ZM207 267.667C207 261.711 211.711 257 217.667 257C223.622 257 228.333 261.711 228.333 267.667C228.333 273.622 223.622 278.333 217.667 278.333C211.711 278.333 207 273.622 207 267.667Z" fill="white"/>
</g>
<defs>
<clipPath id="clip0_437_185">
<rect width="400" height="400" rx="200" fill="white"/>
</clipPath>
</defs>
</svg>
